<?xml version="1.0" encoding="UTF-8"?>
<svg version="1.1" xmlns="http://www.w3.org/2000/svg" width="497" height="502">
<path d="M0 0 C1.31701904 0.00323273 1.31701904 0.00323273 2.66064453 0.00653076 C49.71718255 0.19144765 97.99560732 14.57317972 136.4375 42.3125 C137.8915625 43.35664062 137.8915625 43.35664062 139.375 44.421875 C160.39939465 59.86166482 178.67506786 77.53552033 194.4375 98.3125 C194.8617627 98.86921387 195.28602539 99.42592773 195.72314453 99.99951172 C219.4257823 131.3529423 234.40666714 168.58053432 240.4375 207.3125 C240.56592285 208.09963379 240.6943457 208.88676758 240.82666016 209.69775391 C246.90848364 248.51084561 241.99555356 290.96638312 227.4375 327.3125 C227.11942383 328.11574707 226.80134766 328.91899414 226.47363281 329.74658203 C214.08164949 360.71477207 196.41380787 387.23717591 173.4375 411.3125 C172.60605469 412.18519531 171.77460938 413.05789063 170.91796875 413.95703125 C165.95330559 419.04678828 160.76577773 423.67011426 155.20703125 428.1015625 C153.39230999 429.55026804 151.59694774 431.02363988 149.82421875 432.5234375 C120.46943295 457.31192329 83.85787089 472.71775559 46.4375 480.3125 C45.63022461 480.47911133 44.82294922 480.64572266 43.99121094 480.81738281 C-11.56472912 491.71203123 -71.01969908 477.27927518 -118.14648438 446.94628906 C-140.20341603 432.03066794 -140.20341603 432.03066794 -144.5625 423.3125 C-144.9375 420.4375 -144.9375 420.4375 -144.5625 417.3125 C-142.4375 414.875 -142.4375 414.875 -139.5625 413.3125 C-134.28377621 413.5449438 -130.85142059 415.82112344 -126.6875 418.8125 C-105.09531936 433.69471736 -81.03285829 444.69631758 -55.4375 450.5625 C-54.78249512 450.71372314 -54.12749023 450.86494629 -53.45263672 451.02075195 C-39.97652597 453.90105513 -26.54266765 454.690606 -12.8125 454.625 C-12.01324097 454.62317719 -11.21398193 454.62135437 -10.39050293 454.61947632 C33.65671032 454.45184486 79.34837518 445.51712563 118.38134766 424.42089844 C120.66451951 423.19012188 122.9630414 421.99061302 125.26171875 420.7890625 C141.58779952 412.14898169 156.21485454 402.23590596 169.4375 389.3125 C170.35917969 388.45269531 171.28085937 387.59289062 172.23046875 386.70703125 C194.5079541 365.43501773 216.71515714 329.54029815 217.49609375 297.94165039 C217.49954239 295.73085638 217.48170617 293.52280832 217.4375 291.3125 C217.20675781 292.00585449 216.97601563 292.69920898 216.73828125 293.41357422 C205.05730458 328.32376585 190.23460086 357.9027212 164.81933594 384.83398438 C163.4351671 386.31499612 162.08066286 387.81963557 160.7265625 389.328125 C159.86804688 390.25109375 159.00953125 391.1740625 158.125 392.125 C157.36574219 392.95644531 156.60648437 393.78789062 155.82421875 394.64453125 C153.4375 396.3125 153.4375 396.3125 150.38671875 396.171875 C146.8656449 395.14586673 143.76629538 393.84374587 140.4375 392.3125 C141.01600377 388.77925175 142.23396645 387.16732306 144.7890625 384.703125 C145.47613281 384.03023438 146.16320312 383.35734375 146.87109375 382.6640625 C147.59425781 381.97054688 148.31742187 381.27703125 149.0625 380.5625 C188.55691051 342.30456275 211.54040679 290.80128096 212.6875 235.8125 C211.5992103 183.64261262 191.62455769 136.12525301 155.03222656 98.94238281 C153.57042236 97.44835268 152.13902337 95.92472985 150.7109375 94.3984375 C117.79435375 59.89071979 70.06392642 40.76728118 23.4375 35.3125 C22.33019531 35.18101563 21.22289062 35.04953125 20.08203125 34.9140625 C-13.35476704 31.71312709 -46.18118108 36.68660311 -77.5625 48.3125 C-78.35575684 48.59931641 -79.14901367 48.88613281 -79.96630859 49.18164062 C-103.5841757 57.84820938 -124.41720787 73.082796 -142.5625 90.3125 C-143.06104492 90.78381348 -143.55958984 91.25512695 -144.07324219 91.74072266 C-156.50549362 103.57214491 -166.78563601 116.55974583 -175.5625 131.3125 C-176.00094238 132.04710449 -176.43938477 132.78170898 -176.89111328 133.53857422 C-205.0859159 181.34629382 -212.7182846 239.71348964 -199.05859375 293.43359375 C-195.09039572 308.12028453 -190.07482561 323.03183484 -182.328125 336.203125 C-180.35764015 339.67327088 -179.77987685 341.39938423 -180.5625 345.3125 C-183.06138813 348.10537497 -184.77912066 349.14220014 -188.4375 349.9375 C-194.02398674 348.82020265 -197.94194125 344.48833916 -201.1171875 339.89453125 C-201.90636219 338.64784472 -202.67926572 337.39074278 -203.4375 336.125 C-203.85749268 335.4343042 -204.27748535 334.7436084 -204.71020508 334.03198242 C-223.41457742 302.58435734 -230.73333586 267.51069552 -232.5625 231.3125 C-236.05368335 234.80368335 -234.63901786 246.02678627 -234.6875 250.875 C-234.63981707 256.95457343 -234.26265623 263.01101873 -233.9206543 269.0793457 C-233.36277259 279.81781459 -233.47204136 290.56322979 -233.5625 301.3125 C-235.48999023 300.5065918 -235.48999023 300.5065918 -237.5625 299.3125 C-238.48409135 296.84561407 -239.09903393 294.6810668 -239.625 292.125 C-239.78709961 291.37162354 -239.94919922 290.61824707 -240.11621094 289.84204102 C-240.63228015 287.33748313 -241.10485337 284.82836838 -241.5625 282.3125 C-241.71638184 281.47493164 -241.87026367 280.63736328 -242.02880859 279.77441406 C-252.67772507 218.96622291 -236.71362389 155.45847264 -201.69897461 105.17431641 C-196.34767297 97.65551007 -190.59964177 90.71794545 -184.203125 84.0703125 C-182.02149365 81.79186319 -179.96379987 79.4770162 -177.9375 77.0625 C-174.6435813 73.25937647 -170.98196858 69.96341106 -167.203125 66.6484375 C-165.4774918 65.12191583 -163.77786209 63.56534479 -162.109375 61.9765625 C-128.32332435 29.95236112 -81.35297863 9.35109249 -35.5625 2.3125 C-33.80522583 2.03974243 -33.80522583 2.03974243 -32.01245117 1.76147461 C-21.32443099 0.25691843 -10.78374536 -0.04779485 0 0 Z M-185.5625 120.3125 C-195.55406141 128.78360641 -204.27970723 143.34875022 -206.5625 156.3125 C-206.26711645 157.65475089 -205.93898448 158.99070262 -205.5625 160.3125 C-200.57859418 153.35057344 -196.55771018 145.94790808 -192.64624023 138.35327148 C-191.6117967 136.34942353 -190.56316106 134.35342324 -189.51367188 132.35742188 C-188.85330455 131.08377996 -188.19376732 129.80970723 -187.53515625 128.53515625 C-186.93968994 127.38797119 -186.34422363 126.24078613 -185.73071289 125.05883789 C-185.34520264 124.15254639 -184.95969238 123.24625488 -184.5625 122.3125 C-184.8925 121.6525 -185.2225 120.9925 -185.5625 120.3125 Z " fill="#E20325" transform="translate(248.5625,7.6875)"/>
<path d="M0 0 C21.138959 10.94362037 39.80925385 28.60249754 55.0234375 46.68359375 C55.84199219 47.63621094 56.66054687 48.58882812 57.50390625 49.5703125 C63.71075014 56.81088775 69.6738442 64.21591288 75.51953125 71.75 C77.11855953 73.8058935 78.72663789 75.85448213 80.3359375 77.90234375 C90.47292782 90.82772027 100.2391675 104.00719384 109.81494141 117.3527832 C117.67023272 128.29520643 125.81618144 139.00349633 134.0234375 149.68359375 C135.02092724 150.98430299 136.01833273 152.28507685 137.015625 153.5859375 C140.55103069 158.19260011 144.10209314 162.78680858 147.66772461 167.37011719 C148.29658066 168.17850037 148.92543671 168.98688354 149.573349 169.81976318 C150.0518782 170.43482727 150.53040741 171.04989136 151.0234375 171.68359375 C151.02159391 170.86306078 151.01975033 170.04252781 151.01785088 169.1971302 C150.97363027 149.20687538 150.94056071 129.21662901 150.91981316 109.22633553 C150.90951243 99.55907558 150.89547512 89.89184833 150.87255859 80.22460938 C150.85258785 71.79600085 150.83971232 63.36741601 150.83526051 54.93878448 C150.83265937 50.47830577 150.82657068 46.01789483 150.81197739 41.5574379 C150.79833522 37.35336784 150.7942282 33.14939305 150.79722214 28.94530296 C150.79667493 27.40789331 150.79273719 25.87048025 150.78502655 24.33308983 C150.68606221 3.5709397 150.68606221 3.5709397 155.1484375 -1.94140625 C158.91851394 -3.74448628 161.91933726 -4.14719577 166.0234375 -3.31640625 C169.57244274 -1.15614219 171.60221512 0.8026718 173.0234375 4.68359375 C173.2183818 7.67099516 173.30177335 10.56485866 173.29086304 13.55221558 C173.29539415 14.4579485 173.29992526 15.36368143 173.30459368 16.29686081 C173.31727595 19.33842099 173.31561484 22.37980299 173.31396484 25.42138672 C173.31994768 27.59940828 173.32675266 29.77742771 173.33432007 31.95544434 C173.35201169 37.8769204 173.35667677 43.79833869 173.35795164 49.71983862 C173.35984915 54.66031257 173.36720495 59.60077301 173.37429583 64.54124177 C173.3915214 76.86238176 173.39532137 89.18348862 173.39379521 101.50463881 C173.39293181 112.86668235 173.4156997 124.22855415 173.4455303 135.59055603 C173.47166626 145.91252198 173.4824114 156.23442927 173.48113215 166.55642807 C173.48062175 172.72367599 173.48634823 178.89076458 173.50748825 185.05797958 C173.52682551 190.85775369 173.52702587 196.65721575 173.51245499 202.45700073 C173.51036022 204.58628926 173.51510734 206.71559709 173.5271759 208.84485245 C173.5425796 211.75060528 173.53335226 214.65527563 173.51791382 217.56100464 C173.52820094 218.40458963 173.53848807 219.24817463 173.54908693 220.1173228 C173.47210498 226.66914153 171.23564635 230.05659574 167.0234375 235.05859375 C161.42291283 238.09221128 155.26138563 237.43629421 149.18359375 236.0234375 C114.43066139 224.5056077 91.57775165 185.12617772 72.12109375 156.66088867 C59.71063762 138.50743986 46.56874675 121.0009168 33.0234375 103.68359375 C32.50394531 103.0194043 31.98445313 102.35521484 31.44921875 101.67089844 C29.12758173 98.70487004 26.80194921 95.74209912 24.46875 92.78515625 C22.9573528 90.86814447 21.45106866 88.94707384 19.953125 87.01953125 C15.43320038 81.25525491 10.59961425 75.8610431 5.62109375 70.49609375 C3.51054525 68.21098861 1.4384656 65.9062827 -0.6015625 63.55859375 C-3.29497355 60.46182162 -6.00039929 57.37662309 -8.7265625 54.30859375 C-9.46390625 53.47585937 -10.20125 52.643125 -10.9609375 51.78515625 C-12.98870954 49.51910825 -12.98870954 49.51910825 -15.9765625 47.68359375 C-16.66436067 74.08813802 -17.07070908 100.48048138 -17.0390625 126.89453125 C-17.03762238 128.16767433 -17.03618225 129.44081741 -17.03469849 130.75254059 C-17.0225694 139.85457798 -17.00046411 148.95658084 -16.9765625 158.05859375 C-16.95259496 167.30254486 -16.93254981 176.54647827 -16.92062378 185.79045486 C-16.91422343 189.42806659 -16.90174879 193.06562272 -16.88891602 196.70321655 C-16.88528486 198.92893427 -16.88193296 201.15465247 -16.87890625 203.38037109 C-16.87373993 204.367229 -16.86857361 205.35408691 -16.86325073 206.37084961 C-16.86172526 226.6507088 -16.86172526 226.6507088 -21.9765625 232.68359375 C-24.72892708 233.86317857 -27.01649603 234.07142519 -29.9765625 233.68359375 C-35.00589665 231.31126632 -36.95065078 228.77580488 -38.9765625 223.68359375 C-39.39259783 220.68489659 -39.38615956 217.72562057 -39.36424255 214.70181274 C-39.36962809 213.80803275 -39.37501363 212.91425277 -39.38056237 211.99338853 C-39.39484841 209.00407784 -39.38773654 206.01520955 -39.38061523 203.02587891 C-39.38631849 200.88036239 -39.39328257 198.7348489 -39.40141296 196.58934021 C-39.41936522 190.76492024 -39.41817195 184.94065075 -39.41247058 179.11621141 C-39.40938146 174.25286599 -39.41546817 169.38954958 -39.42150933 164.52620828 C-39.43556 153.05195287 -39.43398897 141.57777191 -39.42260742 130.10351562 C-39.41112784 118.26897641 -39.42519809 106.43466386 -39.4520039 94.60015452 C-39.47416168 84.43691907 -39.48079801 74.27375477 -39.47492748 64.11049688 C-39.47155666 58.04159263 -39.47398142 51.97283366 -39.49117851 45.90394974 C-39.50664647 40.19605386 -39.50269342 34.48849364 -39.48387337 28.78061104 C-39.48018699 26.68764243 -39.48329733 24.59464897 -39.49375916 22.50170326 C-39.50696731 19.64052989 -39.49542276 16.78046797 -39.47776794 13.91934204 C-39.48737295 13.09461981 -39.49697796 12.26989759 -39.50687402 11.42018378 C-39.43483761 5.73104766 -38.10099522 1.46592665 -34.9765625 -3.31640625 C-26.2609897 -11.76787078 -9.4522017 -4.18030443 0 0 Z " fill="#E30224" transform="translate(180.9765625,133.31640625)"/>
<path d="M0 0 C3.66973812 1.01390559 7.16003606 2.38703509 10.6875 3.8125 C23.66086831 8.9999712 36.06086733 11.57339681 50.0625 11.5 C51.31748291 11.49572998 52.57246582 11.49145996 53.86547852 11.48706055 C69.1277748 11.21172238 83.07784352 7.5376236 97.1875 1.91796875 C100.03717421 0.98786675 102.0305878 0.65718161 105 1 C108.57997706 3.62531651 109.83870692 5.09675873 110.625 9.5 C109.8229979 13.99121175 108.48746743 15.1029306 105 18 C102.33180027 19.31231135 99.59095418 20.19802081 96.75 21.0625 C95.95787109 21.31290039 95.16574219 21.56330078 94.34960938 21.82128906 C63.54920409 31.350088 27.35045105 35.40979087 -3 22 C-5.93976696 20.24233813 -8.51101803 18.34785413 -11 16 C-11.54398438 15.505 -12.08796875 15.01 -12.6484375 14.5 C-14.77559386 12.13922531 -14.87522027 10.11949317 -15 7 C-11.75058832 -0.1487057 -7.18119929 -0.86021222 0 0 Z " fill="#DF0426" transform="translate(218,421)"/>
<path d="M0 0 C3.05821144 3.03492557 4.29291625 5.78270434 4.75 10.125 C3.6242808 14.0981266 2.59212536 16.37644412 -0.5 19.125 C-4.60809935 20.61885431 -8.18647281 20.04819801 -12.18505859 18.25927734 C-14.25233949 17.1497429 -16.28340165 15.99033825 -18.3125 14.8125 C-40.41735582 2.55002284 -68.55861503 1.79434534 -92.72021484 8.35791016 C-101.36235283 10.97840789 -110.16044987 14.08022494 -118.25 18.125 C-121.75 18.3125 -121.75 18.3125 -125.25 18.125 C-125.91 17.465 -126.57 16.805 -127.25 16.125 C-127.07155313 13.5060297 -126.59079689 12.43204647 -124.6328125 10.66796875 C-105.45945779 -0.84267845 -81.30647059 -6.4694076 -59.25 -8.875 C-58.27804688 -8.98457031 -57.30609375 -9.09414063 -56.3046875 -9.20703125 C-38.22107092 -10.97762034 -15.16327884 -11.71707911 0 0 Z " fill="#DE0728" transform="translate(286.25,61.875)"/>
<path d="" fill="#FFFFFF" transform="translate(0,0)"/>
<path d="" fill="#FFFFFF" transform="translate(0,0)"/>
<path d="" fill="#FFFFFF" transform="translate(0,0)"/>
<path d="" fill="#FFFFFF" transform="translate(0,0)"/>
<path d="" fill="#FFFFFF" transform="translate(0,0)"/>
<path d="" fill="#FFFFFF" transform="translate(0,0)"/>
<path d="" fill="#FFFFFF" transform="translate(0,0)"/>
<path d="" fill="#FFFFFF" transform="translate(0,0)"/>
<path d="" fill="#FFFFFF" transform="translate(0,0)"/>
<path d="" fill="#FFFFFF" transform="translate(0,0)"/>
<path d="" fill="#FFFFFF" transform="translate(0,0)"/>
<path d="" fill="#FFFFFF" transform="translate(0,0)"/>
<path d="" fill="#FFFFFF" transform="translate(0,0)"/>
<path d="" fill="#FFFFFF" transform="translate(0,0)"/>
<path d="" fill="#FFFFFF" transform="translate(0,0)"/>
<path d="" fill="#FFFFFF" transform="translate(0,0)"/>
<path d="" fill="#FFFFFF" transform="translate(0,0)"/>
<path d="" fill="#FFFFFF" transform="translate(0,0)"/>
<path d="" fill="#FFFFFF" transform="translate(0,0)"/>
<path d="" fill="#FFFFFF" transform="translate(0,0)"/>
<path d="" fill="#FFFFFF" transform="translate(0,0)"/>
<path d="" fill="#FFFFFF" transform="translate(0,0)"/>
<path d="" fill="#FFFFFF" transform="translate(0,0)"/>
<path d="" fill="#FFFFFF" transform="translate(0,0)"/>
<path d="" fill="#FFFFFF" transform="translate(0,0)"/>
<path d="" fill="#FFFFFF" transform="translate(0,0)"/>
<path d="" fill="#FFFFFF" transform="translate(0,0)"/>
<path d="" fill="#FFFFFF" transform="translate(0,0)"/>
<path d="" fill="#FFFFFF" transform="translate(0,0)"/>
<path d="" fill="#FFFFFF" transform="translate(0,0)"/>
<path d="" fill="#FFFFFF" transform="translate(0,0)"/>
<path d="" fill="#FFFFFF" transform="translate(0,0)"/>
<path d="" fill="#FFFFFF" transform="translate(0,0)"/>
<path d="" fill="#FFFFFF" transform="translate(0,0)"/>
<path d="" fill="#FFFFFF" transform="translate(0,0)"/>
<path d="" fill="#FFFFFF" transform="translate(0,0)"/>
<path d="" fill="#FFFFFF" transform="translate(0,0)"/>
<path d="" fill="#FFFFFF" transform="translate(0,0)"/>
<path d="" fill="#FFFFFF" transform="translate(0,0)"/>
<path d="" fill="#FFFFFF" transform="translate(0,0)"/>
<path d="" fill="#FFFFFF" transform="translate(0,0)"/>
<path d="" fill="#FFFFFF" transform="translate(0,0)"/>
<path d="" fill="#FFFFFF" transform="translate(0,0)"/>
<path d="" fill="#FFFFFF" transform="translate(0,0)"/>
<path d="" fill="#FFFFFF" transform="translate(0,0)"/>
<path d="" fill="#FFFFFF" transform="translate(0,0)"/>
<path d="" fill="#FFFFFF" transform="translate(0,0)"/>
<path d="" fill="#FFFFFF" transform="translate(0,0)"/>
<path d="" fill="#FFFFFF" transform="translate(0,0)"/>
<path d="" fill="#FFFFFF" transform="translate(0,0)"/>
<path d="" fill="#FFFFFF" transform="translate(0,0)"/>
<path d="" fill="#FFFFFF" transform="translate(0,0)"/>
<path d="" fill="#FFFFFF" transform="translate(0,0)"/>
<path d="" fill="#FFFFFF" transform="translate(0,0)"/>
<path d="" fill="#FFFFFF" transform="translate(0,0)"/>
<path d="" fill="#FFFFFF" transform="translate(0,0)"/>
<path d="" fill="#FFFFFF" transform="translate(0,0)"/>
<path d="" fill="#FFFFFF" transform="translate(0,0)"/>
<path d="" fill="#FFFFFF" transform="translate(0,0)"/>
<path d="" fill="#FFFFFF" transform="translate(0,0)"/>
<path d="" fill="#FFFFFF" transform="translate(0,0)"/>
<path d="" fill="#FFFFFF" transform="translate(0,0)"/>
<path d="" fill="#FF00FF" transform="translate(0,0)"/>
<path d="" fill="#FFFFFF" transform="translate(0,0)"/>
<path d="" fill="#FFFFFF" transform="translate(0,0)"/>
<path d="" fill="#FFFFFF" transform="translate(0,0)"/>
<path d="" fill="#FFFFFF" transform="translate(0,0)"/>
<path d="" fill="#FFFFFF" transform="translate(0,0)"/>
<path d="" fill="#FFFFFF" transform="translate(0,0)"/>
</svg>
