<svg xmlns="http://www.w3.org/2000/svg" width="24" height="24" viewBox="0 0 6.35 6.35" id="share"><path d="M3.694 291.974a.798.798 0 0 0-.783.794v.135h-.265c-1.152 0-1.798.652-2.092 1.274-.293.623-.29 1.235-.29 1.235a.265.265 0 0 0 .466.173s.716-.83 1.916-.83h.265v.128c0 .619.719 1.005 1.234.661l1.587-1.058a.801.801 0 0 0 0-1.321l-1.587-1.059a.793.793 0 0 0-.451-.132zm.007.53c.055-.002.107.014.15.043l1.588 1.058c.165.11.165.33 0 .44l-1.588 1.059c-.188.125-.41.005-.41-.221v-.392a.265.265 0 0 0-.265-.265h-.53c-.74 0-1.317.26-1.716.52.034-.118.045-.22.103-.343.236-.5.648-.97 1.613-.97h.53a.265.265 0 0 0 .265-.265v-.4a.26.26 0 0 1 .26-.265z" color="#000" font-family="sans-serif" font-weight="400" overflow="visible" transform="translate(0 -290.65)" style="line-height:normal;font-variant-ligatures:normal;font-variant-position:normal;font-variant-caps:normal;font-variant-numeric:normal;font-variant-alternates:normal;font-feature-settings:normal;text-indent:0;text-align:start;text-decoration-line:none;text-decoration-style:solid;text-decoration-color:#000;text-transform:none;text-orientation:mixed;shape-padding:0;isolation:auto;mix-blend-mode:normal"></path></svg>